<mxfile host="app.diagrams.net" agent="Mozilla/5.0 (Windows NT 10.0; Win64; x64) AppleWebKit/537.36 (KHTML, like Gecko) Chrome/134.0.0.0 Safari/537.36 Edg/134.0.0.0" version="26.0.16">
  <diagram name="PÃ¡gina-1" id="vyI-iSb9D1edQg1nzWXc">
    <mxGraphModel dx="786" dy="463" grid="1" gridSize="10" guides="1" tooltips="1" connect="1" arrows="1" fold="1" page="1" pageScale="1" pageWidth="1600" pageHeight="1200" math="0" shadow="0">
      <root>
        <mxCell id="0" />
        <mxCell id="1" parent="0" />
        <mxCell id="OLu1Zra52kH746gA9KD2-1" value="visitante" style="rounded=1;arcSize=10;whiteSpace=wrap;html=1;align=center;" vertex="1" parent="1">
          <mxGeometry x="30" y="150" width="100" height="40" as="geometry" />
        </mxCell>
        <mxCell id="OLu1Zra52kH746gA9KD2-2" value="visita" style="rounded=1;arcSize=10;whiteSpace=wrap;html=1;align=center;" vertex="1" parent="1">
          <mxGeometry x="360" y="150" width="100" height="40" as="geometry" />
        </mxCell>
        <mxCell id="OLu1Zra52kH746gA9KD2-3" value="morador" style="rounded=1;arcSize=10;whiteSpace=wrap;html=1;align=center;" vertex="1" parent="1">
          <mxGeometry x="660" y="150" width="100" height="40" as="geometry" />
        </mxCell>
        <mxCell id="OLu1Zra52kH746gA9KD2-4" value="Relationship" style="shape=rhombus;double=1;perimeter=rhombusPerimeter;whiteSpace=wrap;html=1;align=center;" vertex="1" parent="1">
          <mxGeometry x="180" y="140" width="120" height="60" as="geometry" />
        </mxCell>
        <mxCell id="OLu1Zra52kH746gA9KD2-5" value="Relationship" style="shape=rhombus;double=1;perimeter=rhombusPerimeter;whiteSpace=wrap;html=1;align=center;" vertex="1" parent="1">
          <mxGeometry x="500" y="140" width="120" height="60" as="geometry" />
        </mxCell>
        <mxCell id="OLu1Zra52kH746gA9KD2-6" value="id_visitante" style="ellipse;whiteSpace=wrap;html=1;align=center;" vertex="1" parent="1">
          <mxGeometry x="10" y="80" width="70" height="40" as="geometry" />
        </mxCell>
        <mxCell id="OLu1Zra52kH746gA9KD2-7" value="CPF" style="ellipse;whiteSpace=wrap;html=1;align=center;" vertex="1" parent="1">
          <mxGeometry x="10" y="220" width="70" height="40" as="geometry" />
        </mxCell>
        <mxCell id="OLu1Zra52kH746gA9KD2-8" value="telefone" style="ellipse;whiteSpace=wrap;html=1;align=center;" vertex="1" parent="1">
          <mxGeometry x="120" y="220" width="80" height="30" as="geometry" />
        </mxCell>
        <mxCell id="OLu1Zra52kH746gA9KD2-9" value="nome" style="ellipse;whiteSpace=wrap;html=1;align=center;" vertex="1" parent="1">
          <mxGeometry x="90" y="80" width="70" height="40" as="geometry" />
        </mxCell>
        <mxCell id="OLu1Zra52kH746gA9KD2-10" value="foto" style="ellipse;whiteSpace=wrap;html=1;align=center;" vertex="1" parent="1">
          <mxGeometry x="60" y="270" width="70" height="30" as="geometry" />
        </mxCell>
        <mxCell id="OLu1Zra52kH746gA9KD2-11" value="data" style="ellipse;whiteSpace=wrap;html=1;align=center;" vertex="1" parent="1">
          <mxGeometry x="410" y="90" width="70" height="40" as="geometry" />
        </mxCell>
        <mxCell id="OLu1Zra52kH746gA9KD2-12" value="id_visita" style="ellipse;whiteSpace=wrap;html=1;align=center;" vertex="1" parent="1">
          <mxGeometry x="300" y="90" width="70" height="40" as="geometry" />
        </mxCell>
        <mxCell id="OLu1Zra52kH746gA9KD2-13" value="hora" style="ellipse;whiteSpace=wrap;html=1;align=center;" vertex="1" parent="1">
          <mxGeometry x="300" y="215" width="70" height="40" as="geometry" />
        </mxCell>
        <mxCell id="OLu1Zra52kH746gA9KD2-14" value="id_visitante" style="ellipse;whiteSpace=wrap;html=1;align=center;" vertex="1" parent="1">
          <mxGeometry x="370" y="260" width="70" height="40" as="geometry" />
        </mxCell>
        <mxCell id="OLu1Zra52kH746gA9KD2-15" value="id_morador" style="ellipse;whiteSpace=wrap;html=1;align=center;" vertex="1" parent="1">
          <mxGeometry x="410" y="220" width="70" height="20" as="geometry" />
        </mxCell>
        <mxCell id="OLu1Zra52kH746gA9KD2-16" value="AP" style="ellipse;whiteSpace=wrap;html=1;align=center;" vertex="1" parent="1">
          <mxGeometry x="730" y="210" width="70" height="40" as="geometry" />
        </mxCell>
        <mxCell id="OLu1Zra52kH746gA9KD2-17" value="telefone" style="ellipse;whiteSpace=wrap;html=1;align=center;" vertex="1" parent="1">
          <mxGeometry x="610" y="220" width="70" height="40" as="geometry" />
        </mxCell>
        <mxCell id="OLu1Zra52kH746gA9KD2-18" value="bloco" style="ellipse;whiteSpace=wrap;html=1;align=center;" vertex="1" parent="1">
          <mxGeometry x="680" y="260" width="70" height="40" as="geometry" />
        </mxCell>
        <mxCell id="OLu1Zra52kH746gA9KD2-19" value="CPF" style="ellipse;whiteSpace=wrap;html=1;align=center;" vertex="1" parent="1">
          <mxGeometry x="740" y="80" width="70" height="40" as="geometry" />
        </mxCell>
        <mxCell id="OLu1Zra52kH746gA9KD2-20" value="id_morador" style="ellipse;whiteSpace=wrap;html=1;align=center;" vertex="1" parent="1">
          <mxGeometry x="630" y="80" width="70" height="40" as="geometry" />
        </mxCell>
        <mxCell id="OLu1Zra52kH746gA9KD2-21" value="" style="endArrow=none;html=1;rounded=0;exitX=0.762;exitY=0.1;exitDx=0;exitDy=0;exitPerimeter=0;entryX=0.25;entryY=1;entryDx=0;entryDy=0;" edge="1" parent="1" source="OLu1Zra52kH746gA9KD2-7" target="OLu1Zra52kH746gA9KD2-1">
          <mxGeometry relative="1" as="geometry">
            <mxPoint x="230" y="250" as="sourcePoint" />
            <mxPoint x="390" y="250" as="targetPoint" />
          </mxGeometry>
        </mxCell>
        <mxCell id="OLu1Zra52kH746gA9KD2-22" value="" style="endArrow=none;html=1;rounded=0;exitX=0.619;exitY=0.022;exitDx=0;exitDy=0;exitPerimeter=0;entryX=0.873;entryY=1;entryDx=0;entryDy=0;entryPerimeter=0;" edge="1" parent="1" source="OLu1Zra52kH746gA9KD2-10" target="OLu1Zra52kH746gA9KD2-1">
          <mxGeometry relative="1" as="geometry">
            <mxPoint x="230" y="250" as="sourcePoint" />
            <mxPoint x="390" y="250" as="targetPoint" />
          </mxGeometry>
        </mxCell>
        <mxCell id="OLu1Zra52kH746gA9KD2-23" value="" style="endArrow=none;html=1;rounded=0;exitX=0.358;exitY=0.044;exitDx=0;exitDy=0;exitPerimeter=0;entryX=1;entryY=1;entryDx=0;entryDy=0;" edge="1" parent="1" source="OLu1Zra52kH746gA9KD2-8" target="OLu1Zra52kH746gA9KD2-1">
          <mxGeometry relative="1" as="geometry">
            <mxPoint x="230" y="250" as="sourcePoint" />
            <mxPoint x="390" y="250" as="targetPoint" />
          </mxGeometry>
        </mxCell>
        <mxCell id="OLu1Zra52kH746gA9KD2-24" value="" style="endArrow=none;html=1;rounded=0;exitX=0.657;exitY=1.1;exitDx=0;exitDy=0;exitPerimeter=0;entryX=0.5;entryY=0;entryDx=0;entryDy=0;" edge="1" parent="1" source="OLu1Zra52kH746gA9KD2-6" target="OLu1Zra52kH746gA9KD2-1">
          <mxGeometry relative="1" as="geometry">
            <mxPoint x="230" y="250" as="sourcePoint" />
            <mxPoint x="390" y="250" as="targetPoint" />
          </mxGeometry>
        </mxCell>
        <mxCell id="OLu1Zra52kH746gA9KD2-25" value="" style="endArrow=none;html=1;rounded=0;exitX=0.324;exitY=0.983;exitDx=0;exitDy=0;exitPerimeter=0;entryX=0.82;entryY=0.017;entryDx=0;entryDy=0;entryPerimeter=0;" edge="1" parent="1" source="OLu1Zra52kH746gA9KD2-9" target="OLu1Zra52kH746gA9KD2-1">
          <mxGeometry relative="1" as="geometry">
            <mxPoint x="230" y="250" as="sourcePoint" />
            <mxPoint x="390" y="250" as="targetPoint" />
          </mxGeometry>
        </mxCell>
        <mxCell id="OLu1Zra52kH746gA9KD2-26" value="" style="endArrow=none;html=1;rounded=0;exitX=0.676;exitY=0.108;exitDx=0;exitDy=0;exitPerimeter=0;entryX=0.25;entryY=1;entryDx=0;entryDy=0;" edge="1" parent="1" source="OLu1Zra52kH746gA9KD2-13" target="OLu1Zra52kH746gA9KD2-2">
          <mxGeometry relative="1" as="geometry">
            <mxPoint x="230" y="250" as="sourcePoint" />
            <mxPoint x="390" y="250" as="targetPoint" />
          </mxGeometry>
        </mxCell>
        <mxCell id="OLu1Zra52kH746gA9KD2-27" value="" style="endArrow=none;html=1;rounded=0;exitX=0;exitY=0;exitDx=0;exitDy=0;entryX=0.433;entryY=1.017;entryDx=0;entryDy=0;entryPerimeter=0;" edge="1" parent="1" source="OLu1Zra52kH746gA9KD2-14" target="OLu1Zra52kH746gA9KD2-2">
          <mxGeometry relative="1" as="geometry">
            <mxPoint x="230" y="250" as="sourcePoint" />
            <mxPoint x="390" y="250" as="targetPoint" />
          </mxGeometry>
        </mxCell>
        <mxCell id="OLu1Zra52kH746gA9KD2-28" value="" style="endArrow=none;html=1;rounded=0;exitX=0.5;exitY=0;exitDx=0;exitDy=0;entryX=0.593;entryY=1;entryDx=0;entryDy=0;entryPerimeter=0;" edge="1" parent="1" source="OLu1Zra52kH746gA9KD2-15" target="OLu1Zra52kH746gA9KD2-2">
          <mxGeometry relative="1" as="geometry">
            <mxPoint x="230" y="250" as="sourcePoint" />
            <mxPoint x="390" y="250" as="targetPoint" />
          </mxGeometry>
        </mxCell>
        <mxCell id="OLu1Zra52kH746gA9KD2-29" value="" style="endArrow=none;html=1;rounded=0;exitX=0.5;exitY=1;exitDx=0;exitDy=0;entryX=0.18;entryY=0.05;entryDx=0;entryDy=0;entryPerimeter=0;" edge="1" parent="1" source="OLu1Zra52kH746gA9KD2-12" target="OLu1Zra52kH746gA9KD2-2">
          <mxGeometry relative="1" as="geometry">
            <mxPoint x="230" y="250" as="sourcePoint" />
            <mxPoint x="390" y="250" as="targetPoint" />
          </mxGeometry>
        </mxCell>
        <mxCell id="OLu1Zra52kH746gA9KD2-30" value="" style="endArrow=none;html=1;rounded=0;exitX=0.343;exitY=1.033;exitDx=0;exitDy=0;exitPerimeter=0;entryX=0.687;entryY=0.033;entryDx=0;entryDy=0;entryPerimeter=0;" edge="1" parent="1" source="OLu1Zra52kH746gA9KD2-11" target="OLu1Zra52kH746gA9KD2-2">
          <mxGeometry relative="1" as="geometry">
            <mxPoint x="230" y="250" as="sourcePoint" />
            <mxPoint x="390" y="250" as="targetPoint" />
          </mxGeometry>
        </mxCell>
        <mxCell id="OLu1Zra52kH746gA9KD2-31" value="" style="endArrow=none;html=1;rounded=0;exitX=0.5;exitY=1;exitDx=0;exitDy=0;entryX=0.25;entryY=0;entryDx=0;entryDy=0;" edge="1" parent="1" source="OLu1Zra52kH746gA9KD2-20" target="OLu1Zra52kH746gA9KD2-3">
          <mxGeometry relative="1" as="geometry">
            <mxPoint x="480" y="250" as="sourcePoint" />
            <mxPoint x="640" y="250" as="targetPoint" />
          </mxGeometry>
        </mxCell>
        <mxCell id="OLu1Zra52kH746gA9KD2-32" value="" style="endArrow=none;html=1;rounded=0;exitX=0;exitY=0.75;exitDx=0;exitDy=0;entryX=0.5;entryY=0;entryDx=0;entryDy=0;" edge="1" parent="1" source="OLu1Zra52kH746gA9KD2-3" target="OLu1Zra52kH746gA9KD2-17">
          <mxGeometry relative="1" as="geometry">
            <mxPoint x="480" y="250" as="sourcePoint" />
            <mxPoint x="640" y="250" as="targetPoint" />
          </mxGeometry>
        </mxCell>
        <mxCell id="OLu1Zra52kH746gA9KD2-33" value="" style="endArrow=none;html=1;rounded=0;exitX=0.5;exitY=1;exitDx=0;exitDy=0;entryX=0.5;entryY=0;entryDx=0;entryDy=0;" edge="1" parent="1" source="OLu1Zra52kH746gA9KD2-3" target="OLu1Zra52kH746gA9KD2-18">
          <mxGeometry relative="1" as="geometry">
            <mxPoint x="480" y="250" as="sourcePoint" />
            <mxPoint x="640" y="250" as="targetPoint" />
          </mxGeometry>
        </mxCell>
        <mxCell id="OLu1Zra52kH746gA9KD2-34" value="" style="endArrow=none;html=1;rounded=0;exitX=0.833;exitY=0.933;exitDx=0;exitDy=0;exitPerimeter=0;entryX=0.371;entryY=0.033;entryDx=0;entryDy=0;entryPerimeter=0;" edge="1" parent="1" source="OLu1Zra52kH746gA9KD2-3" target="OLu1Zra52kH746gA9KD2-16">
          <mxGeometry relative="1" as="geometry">
            <mxPoint x="480" y="250" as="sourcePoint" />
            <mxPoint x="640" y="250" as="targetPoint" />
          </mxGeometry>
        </mxCell>
        <mxCell id="OLu1Zra52kH746gA9KD2-35" value="" style="endArrow=none;html=1;rounded=0;exitX=0.705;exitY=0.983;exitDx=0;exitDy=0;exitPerimeter=0;entryX=1;entryY=0.75;entryDx=0;entryDy=0;" edge="1" parent="1" source="OLu1Zra52kH746gA9KD2-19" target="OLu1Zra52kH746gA9KD2-3">
          <mxGeometry relative="1" as="geometry">
            <mxPoint x="480" y="250" as="sourcePoint" />
            <mxPoint x="640" y="250" as="targetPoint" />
          </mxGeometry>
        </mxCell>
        <mxCell id="OLu1Zra52kH746gA9KD2-36" value="" style="endArrow=none;html=1;rounded=0;exitX=1;exitY=0.5;exitDx=0;exitDy=0;entryX=0;entryY=0.5;entryDx=0;entryDy=0;" edge="1" parent="1" source="OLu1Zra52kH746gA9KD2-4" target="OLu1Zra52kH746gA9KD2-2">
          <mxGeometry relative="1" as="geometry">
            <mxPoint x="480" y="250" as="sourcePoint" />
            <mxPoint x="640" y="250" as="targetPoint" />
          </mxGeometry>
        </mxCell>
        <mxCell id="OLu1Zra52kH746gA9KD2-37" value="" style="endArrow=none;html=1;rounded=0;exitX=1;exitY=0.5;exitDx=0;exitDy=0;entryX=0;entryY=0.5;entryDx=0;entryDy=0;" edge="1" parent="1" source="OLu1Zra52kH746gA9KD2-2" target="OLu1Zra52kH746gA9KD2-5">
          <mxGeometry relative="1" as="geometry">
            <mxPoint x="480" y="250" as="sourcePoint" />
            <mxPoint x="640" y="250" as="targetPoint" />
          </mxGeometry>
        </mxCell>
        <mxCell id="OLu1Zra52kH746gA9KD2-38" value="" style="endArrow=none;html=1;rounded=0;exitX=1;exitY=0.5;exitDx=0;exitDy=0;entryX=0;entryY=0.5;entryDx=0;entryDy=0;" edge="1" parent="1" source="OLu1Zra52kH746gA9KD2-5" target="OLu1Zra52kH746gA9KD2-3">
          <mxGeometry relative="1" as="geometry">
            <mxPoint x="480" y="250" as="sourcePoint" />
            <mxPoint x="640" y="250" as="targetPoint" />
          </mxGeometry>
        </mxCell>
        <mxCell id="OLu1Zra52kH746gA9KD2-39" value="" style="endArrow=none;html=1;rounded=0;exitX=1;exitY=0.5;exitDx=0;exitDy=0;entryX=0;entryY=0.5;entryDx=0;entryDy=0;" edge="1" parent="1" source="OLu1Zra52kH746gA9KD2-1" target="OLu1Zra52kH746gA9KD2-4">
          <mxGeometry relative="1" as="geometry">
            <mxPoint x="120" y="250" as="sourcePoint" />
            <mxPoint x="280" y="250" as="targetPoint" />
          </mxGeometry>
        </mxCell>
        <mxCell id="OLu1Zra52kH746gA9KD2-40" value="nome" style="ellipse;whiteSpace=wrap;html=1;align=center;" vertex="1" parent="1">
          <mxGeometry x="800" y="170" width="100" height="30" as="geometry" />
        </mxCell>
        <mxCell id="OLu1Zra52kH746gA9KD2-41" value="" style="endArrow=none;html=1;rounded=0;entryX=0;entryY=0.5;entryDx=0;entryDy=0;exitX=1;exitY=1;exitDx=0;exitDy=0;" edge="1" parent="1" source="OLu1Zra52kH746gA9KD2-3" target="OLu1Zra52kH746gA9KD2-40">
          <mxGeometry relative="1" as="geometry">
            <mxPoint x="410" y="250" as="sourcePoint" />
            <mxPoint x="570" y="250" as="targetPoint" />
          </mxGeometry>
        </mxCell>
      </root>
    </mxGraphModel>
  </diagram>
</mxfile>
